<svg xmlns="http://www.w3.org/2000/svg" xmlns:xlink="http://www.w3.org/1999/xlink" viewBox="0 0 78.686 16.373" height="61.882" width="297.396" xmlns:v="https://vecta.io/nano"><path d="M9.244 5.388l-1.692.461v7.015H5.089V6.521l-.049.013-3.335.915v5.416 1.287.352l1.775 1.743h.32 1.289 2.463 3.384 2.463 1.289.32l1.775-1.743v-.352-1.287V7.45l-3.335-.915-.049-.013v6.345l-.056-.002h-2.408V5.85zM13.399 0v1.509l3.384.929V0z" paint-order="markers stroke fill"/><path d="M31.807 9.023h-.518l-1.55-4.475-1.506 4.475h-.518l-2.33-7.192h1.313l1.332 4.281 1.438-4.281h.552l1.443 4.281 1.327-4.281h1.313zm3.419-.097V1.832h1.259v7.095zm3.084 0V1.832h1.259v5.976h3.206v1.119zm5.82 0V1.832h1.259v5.976h3.206v1.119zm5.844 0V1.832h1.259v7.095zm7.225 0l-.518-1.438H54.25l-.494 1.438h-1.4l2.828-7.192h.552l2.852 7.192zM55.46 3.904l-.852 2.62h1.705zm10.828 5.027h-1.22l-.736-3.826-1.429 3.918h-.45l-1.429-3.918-.765 3.826h-1.216l1.429-7.1h.668l1.535 4.78 1.501-4.78h.664zm.784-.397l.465-1.128q.746.523 1.467.523 1.109 0 1.109-.775 0-.363-.262-.693-.262-.329-1.08-.736-.814-.412-1.099-.673-.281-.266-.436-.63-.15-.363-.15-.804 0-.823.601-1.366.605-.542 1.55-.542 1.23 0 1.806.46l-.383 1.085q-.664-.475-1.4-.475-.436 0-.678.232-.237.228-.237.596 0 .61 1.351 1.269.712.349 1.027.644.315.291.479.683.165.387.165.867 0 .862-.683 1.419-.678.557-1.821.557-.993 0-1.792-.513z"/><g fill="#2a7fff"><path d="M9.244 1.45L.001 3.988v2.848l9.243-2.537 9.243 2.537V3.987z" paint-order="markers stroke fill"/><path d="M29.172 11.711l-.353.71q-.287-.287-.925-.287-.604 0-.991.508-.386.505-.386 1.281 0 .776.357 1.232.36.456.958.456.684 0 1.07-.489l.399.693q-.525.558-1.539.558-1.014 0-1.575-.667-.561-.667-.561-1.819 0-1.073.621-1.793.624-.723 1.595-.723.832 0 1.331.34zm1.157-.258h.859v3.279q0 .39.238.634.238.244.654.244.466 0 .723-.238.261-.241.261-.657v-3.262h.859v3.328q0 .746-.502 1.169-.499.423-1.334.423-.842 0-1.301-.413-.456-.413-.456-1.182z"/><use xlink:href="#B"/><path d="M41.017 12.216v4.075h-.859v-4.075H38.62v-.763h4.005v.763zm2.273 1.614q0-1.034.565-1.747.568-.717 1.516-.717 1.043 0 1.595.647.551.647.551 1.816 0 1.169-.578 1.856-.575.687-1.634.687-.974 0-1.496-.68-.518-.68-.518-1.862zm.891 0q0 .849.287 1.314.287.466.835.466.644 0 .981-.456.34-.456.34-1.324 0-1.701-1.255-1.701-.574 0-.882.462-.307.459-.307 1.238z"/><use xlink:href="#C"/><path d="M59.153 16.29v-2.179h-1.925v2.179h-.859v-4.837h.859v1.895h1.925v-1.895h.849v4.837zm1.946-2.46q0-1.034.565-1.747.568-.717 1.516-.717 1.043 0 1.595.647.552.647.552 1.816 0 1.169-.578 1.856-.574.687-1.634.687-.974 0-1.496-.68-.518-.68-.518-1.862zm.892 0q0 .849.287 1.314.287.466.835.466.644 0 .981-.456.34-.456.34-1.324 0-1.701-1.255-1.701-.575 0-.882.462-.307.459-.307 1.238z"/><use xlink:href="#C" x="17.809"/><path d="M72.666 12.216v1.133h1.598v.73h-1.598v1.45h2.193v.763h-3.051v-4.837h3.087v.763z"/><use xlink:href="#B" x="40.739"/></g><defs ><path id="B" d="M35.019 16.023l.317-.769q.508.357 1.001.357.756 0 .756-.528 0-.248-.178-.472-.178-.225-.736-.502-.555-.281-.75-.459-.191-.182-.297-.429-.102-.248-.102-.548 0-.561.409-.931.413-.37 1.057-.37.839 0 1.232.314l-.261.74q-.452-.324-.954-.324-.297 0-.462.158-.162.155-.162.406 0 .416.921.865.485.238.7.439.215.198.327.466.112.264.112.591 0 .588-.466.967-.462.38-1.242.38-.677 0-1.222-.35z"/><path id="C" d="M53.125 16.294h-.832l-.502-2.609-.974 2.671h-.307l-.974-2.671-.522 2.609h-.829l.974-4.841h.456l1.047 3.259 1.024-3.259h.452z"/></defs></svg>